<svg xmlns="http://www.w3.org/2000/svg" viewBox="0 0 186.56 135.31"><defs><style>.cls-1{fill:#fff;fill-rule:evenodd;}</style></defs><g id="レイヤー_2" data-name="レイヤー 2"><g id="グループ_11" data-name="グループ 11"><path id="お申し込み" class="cls-1" d="M7.6 129.31c-1.36 0-3.68-1.36-3.68-2.92s2-3.6 4.88-5c0 2.56.12 4.84.12 6.08s-.48 1.84-1.32 1.84zM12.36 115c0-1.4 0-3 .08-4.56a76.8 76.8 0 008-1.32l-.08-3.92a48 48 0 01-7.8 1.52c.08-1.4.12-2.68.16-3.64s.16-2.28.24-3H8.6a27.3 27.3 0 01.24 3.12v4c-1 0-1.88.08-2.72.08a38.3 38.3 0 01-5.24-.32l.12 3.79c1.56.16 3.44.2 5.2.2.76 0 1.64 0 2.6-.12v6.84C4 119.71 0 123.19 0 126.55c0 3.84 5.28 7 8.72 7 2.32 0 3.88-1.2 3.88-5.4 0-1.56-.12-4.88-.16-8.16a26.65 26.65 0 018.12-1.32c3.6 0 6.36 1.68 6.36 4.72 0 3.36-2.92 5.12-6.24 5.72a26.13 26.13 0 01-4.76.28l1.44 4a25.53 25.53 0 005-.56c5.84-1.4 8.56-4.68 8.56-9.4 0-5.08-4.44-8.24-10.32-8.24a31.08 31.08 0 00-8.24 1.24V115zm10.72-7.56a59.21 59.21 0 019.16 5.84l2-3.2a73.59 73.59 0 00-9.36-5.68zm33.82 13.71v-5.28h10.16v5.28zm-13.72 0v-5.28h9.88v5.28zm9.88-13.72v5h-9.88v-5zm14 0v5H56.9v-5zm-10.16-3.56v-5.24h-3.84v5.24H39.5v23h3.68v-2.2h9.88v10.6h3.84v-10.6h10.16v2h3.86v-22.8zm23.6-3a22.55 22.55 0 01.4 4.56c0 3.84-.4 14-.4 19.68 0 6.56 4 9.16 10.1 9.16a20.14 20.14 0 0016.84-8.88l-2.84-3.48c-2.84 4.24-7 8.16-13.92 8.16-3.42 0-6.06-1.44-6.06-5.6 0-5.52.32-14.64.48-19 .07-1.51.22-3 .44-4.52zm44.42-.4V104H132c.16 1.56.32 3.12.56 4.6l-1.36-.2c-1.48 7.92-4.72 14-10.4 17.52a24.16 24.16 0 012.92 2.8 27.31 27.31 0 0010-14.76c1.8 6.48 4.88 11.64 10.16 14.76a16.36 16.36 0 012.92-2.84c-8.08-4.12-10.88-13.6-11.68-25.4zm-4.32 5.2a31.65 31.65 0 00-6.84-6.12l-2.76 2.2a30.14 30.14 0 016.68 6.32zm-1.08 8.48h-8.76v3.44h5.12V127a58.57 58.57 0 01-5.8 4.12l1.92 3.84c2.08-1.72 4-3.32 5.88-5 2.52 3.08 6 4.4 11 4.6 4.56.2 12.6.12 17.12-.08a17.07 17.07 0 011.24-3.8c-5 .32-13.88.44-18.32.28s-7.68-1.44-9.44-4.2v-12.65zm39.64 11.16a2.63 2.63 0 01-2.24 1.36 2.07 2.07 0 01-2-2.18v-.1c0-3 2.88-6 8-6.64a51.89 51.89 0 01-3.8 7.56zm27.4-3.4C185.32 121 183.8 120 182 119a51.15 51.15 0 00.8-7.52l-4.08-.44a32 32 0 010 3.92 21 21 0 01-.24 2.24 35.72 35.72 0 00-9.8-2.92c1.56-3.56 3.16-7.28 4.2-9a8.7 8.7 0 011.16-1.48l-2.48-2a7.15 7.15 0 01-2.28.48c-1.76.16-6.52.36-8.68.36-.84 0-2.08 0-3.12-.12l.16 4.08c1-.12 2.24-.24 3.08-.28 1.8-.12 6-.32 7.56-.36-1.08 2.16-2.4 5.24-3.68 8.12-7.84.28-13.32 4.88-13.32 10.84a5.39 5.39 0 005.56 5.88 6.2 6.2 0 005.52-3.08 74.2 74.2 0 004.8-10 28.57 28.57 0 0110.44 3.4 17 17 0 01-10.28 10.64l3.36 2.76a19.23 19.23 0 0010.24-11.32 39.05 39.05 0 013.8 3z"/><g id="レイヤー_2-2" data-name="レイヤー 2"><g id="レイヤー_1-2" data-name="レイヤー 1-2"><path id="シェイプ_12" data-name="シェイプ 12" class="cls-1" d="M95 12.26H58.63a1.77 1.77 0 00-1.77 1.55 1.64 1.64 0 00.12.76l9.55 31.81a3.57 3.57 0 003.11 2.31h29.3a3.43 3.43 0 003.11-2.31l9.57-31.79a1.77 1.77 0 00-1-2.2 1.7 1.7 0 00-.74-.13zM66 56.39a2.54 2.54 0 01-.14-5.08h37a1.21 1.21 0 001.16-.85l15.2-48.85a1.38 1.38 0 01.19-.48V1l.13-.16a.33.33 0 01.12-.14l.12-.13h.34l.64-.57h12.8a2.59 2.59 0 012.61 2.52 1 1 0 010 .24 2.53 2.53 0 01-2.52 2.3h-9.54a.83.83 0 00-.78.57l-15.26 49.16v.09a.29.29 0 010 .13v.21l-.09.14-.11.16a1.39 1.39 0 01-.32.32l-.12.09H66zm12.16 8A5.33 5.33 0 1172.83 59a5.33 5.33 0 015.33 5.34zm22.88 0A5.33 5.33 0 1195.71 59a5.33 5.33 0 015.29 5.34z"/></g></g></g></g></svg>