<svg id="グループ_10" data-name="グループ 10" xmlns="http://www.w3.org/2000/svg" width="230.74" height="187" viewBox="0 0 115.37 93.5"><defs><filter id="filter" x="1609" y="2741.69" width="25.94" height="51.03" filterUnits="userSpaceOnUse"><feFlood result="flood" flood-color="#00a4a8"/><feComposite result="composite" operator="in" in2="SourceGraphic"/><feBlend result="blend" in2="SourceGraphic"/></filter><style>.cls-1 { fill: #fff; filter: url(#filter); } .cls-1, .cls-2 { fill-rule: evenodd; } .cls-2 { fill: #00a4a8; }</style></defs><g id="icon"><path id="シェイプ_13" data-name="シェイプ 13" class="cls-1" d="M1611.17 2741.69a2.2 2.2 0 00-2.17 2.21v46.62a2.2 2.2 0 002.17 2.21h21.61a2.2 2.2 0 002.16-2.21v-46.62a2.194 2.194 0 00-2.16-2.21h-21.61zm9.02 2.49a11.04 11.04 0 012.62-.21h.15a11.04 11.04 0 012.62.21v.51a11.63 11.63 0 01-2.62.21h-.15a11.63 11.63 0 01-2.62-.21v-.51zm-1.37-.21a.465.465 0 010 .93.465.465 0 010-.93zm3.15 47.7a1.785 1.785 0 111.75-1.78 1.765 1.765 0 01-1.75 1.78zm10.87-6.95a2.185 2.185 0 01-2.16 2.2h-17.42a2.192 2.192 0 01-2.16-2.2v-35.34a2.192 2.192 0 012.16-2.2h17.42a2.185 2.185 0 012.16 2.2v35.34z" transform="translate(-1565.22 -2741.69)"/><path id="シェイプ_8" data-name="シェイプ 8" class="cls-2" d="M1620.59 2772.9h-4.96v-1.82h4.96v-2.1h-4.96v-1.82h4.21l-4.93-10.47h3.32l2.17 5.35c.58 1.47 1.13 2.97 1.74 4.49h.14c.64-1.55 1.19-3.02 1.8-4.49l2.19-5.35h3.22l-4.96 10.47h4.24v1.82h-4.99v2.1h4.99v1.82h-4.99v5.2h-3.19v-5.2z" transform="translate(-1565.22 -2741.69)"/></g><path id="料金_シミュレーション_のコピー" data-name="料金 シミュレーション のコピー" class="cls-2" d="M1618.08 2802.99a13.424 13.424 0 00-2.69-2.05l-.8 1.07a12.118 12.118 0 012.65 2.19zm-.72 4.05a14.463 14.463 0 00-2.84-1.92l-.74 1.14a12.753 12.753 0 012.78 2.04zm-5.1-6.21a28.989 28.989 0 01-1.02 3.88l1.01.31c.44-.97.95-2.55 1.39-3.88zm-3.4 3.86a17.539 17.539 0 00-.93-3.79l-1.12.29a18.267 18.267 0 01.85 3.83zm1.99 2.28h2.65v-1.48h-2.65v-5.56h-1.48v5.56h-2.63v1.48h2.16a16.632 16.632 0 01-2.45 4.88 8.189 8.189 0 01.76 1.58 17.309 17.309 0 002.16-4.5v6.51h1.48v-6.5c.56.9 1.21 1.97 1.5 2.59l1-1.24c-.36-.51-1.99-2.59-2.5-3.13v-.19zm11.48 3.42l-.22-1.45-1.89.33v-9.4h-1.48v9.67l-5.29.95.26 1.46 5.03-.92v4.42h1.48v-4.69zm5.03-5.46a17.574 17.574 0 003.52-3.57 19.109 19.109 0 003.69 3.57h-7.21zm4.34 4.78h5.54v-1.36h-5.54v-2.02h3.45v-.97a22.264 22.264 0 002.72 1.68 9.17 9.17 0 011.02-1.41 18.7 18.7 0 01-7.28-5.82H1630a18.245 18.245 0 01-6.94 6.02 6.39 6.39 0 01.99 1.28 25.108 25.108 0 002.65-1.67v.89h3.33v2.02h-5.42v1.36h5.42v3.86h-6.24v1.37h14.33v-1.37h-6.42v-3.86zm-5.85.76a11.185 11.185 0 011.5 3.03l1.37-.61a10.6 10.6 0 00-1.58-2.93zm8.14 3.03a30.141 30.141 0 002.06-2.99l-1.51-.56a19.026 19.026 0 01-1.72 3.02zm-65.21 7.37l-.97 1.46c1.06.6 2.87 1.8 3.74 2.43l1-1.46c-.79-.58-2.72-1.84-3.77-2.43zm-2.8 12.12l1 1.75a19.681 19.681 0 0012.27-8.19l-1.02-1.81a17.421 17.421 0 01-6.51 6.31 18.474 18.474 0 01-5.74 1.94zm.22-8.26l-.97 1.46a41.654 41.654 0 013.79 2.38l.98-1.51c-.79-.56-2.73-1.75-3.8-2.33zm16.7-3.67l-.63 1.58a55.185 55.185 0 019.01 2.07l.69-1.67a60.411 60.411 0 00-9.07-1.98zm-.77 4.52l-.63 1.61a56.776 56.776 0 018.67 2.09l.66-1.65a64.211 64.211 0 00-8.7-2.05zm-.9 4.91l-.68 1.67a55.14 55.14 0 0110.2 2.53l.75-1.67a64.815 64.815 0 00-10.27-2.53zm22.39 1.99c.24-1.58.71-4.76.85-5.85a5.271 5.271 0 01.14-.61l-1.3-.63a3.258 3.258 0 01-1.02.14h-4.82c-.43 0-1.07-.04-1.5-.09v1.77c.46-.02 1-.05 1.51-.05h5.05c-.05.95-.49 3.87-.73 5.32h-5.88a14.015 14.015 0 01-1.53-.09v1.75c.58-.01.97-.03 1.53-.03h9.16c.41 0 1.12.02 1.45.03v-1.73c-.39.03-1.09.07-1.48.07h-1.43zm7.05 2.11a2.692 2.692 0 01.85-.36 20.439 20.439 0 009.91-6.1l-.97-1.5a18.756 18.756 0 01-9.06 5.71v-9.3a11.807 11.807 0 01.15-1.7h-2.11a9.684 9.684 0 01.16 1.72v9.5a1.9 1.9 0 01-.19.96zm12.29-5.97c.56-.03 1.56-.07 2.51-.07h9.25c.75 0 1.51.05 1.89.07v-2.09c-.41.03-1.07.1-1.91.1h-9.23c-.91 0-1.97-.05-2.51-.1v2.09zm18.69-7.75l-.97 1.46c1.06.6 2.88 1.8 3.74 2.43l1.01-1.46c-.8-.58-2.72-1.84-3.78-2.43zm-2.8 12.12l1 1.75a19.681 19.681 0 0012.27-8.19l-1.02-1.81a17.347 17.347 0 01-6.51 6.31 18.474 18.474 0 01-5.74 1.94zm.22-8.26l-.97 1.46a41.654 41.654 0 013.79 2.38l.99-1.51c-.8-.56-2.74-1.75-3.81-2.33zm25.06 10.47c-.02-.27-.03-.75-.03-1.02v-8.48c0-.34 0-.79.01-.99-.24 0-.76.02-1.15.02h-6.51c-.53 0-1.52-.02-1.89-.07v1.65c.34-.04 1.36-.07 1.89-.07h6v2.5h-5.83c-.62 0-1.28-.03-1.67-.05v1.61c.37-.03 1.05-.03 1.68-.03h5.82v2.68h-6.67c-.59 0-1.14-.03-1.42-.06v1.66c.28 0 .91-.03 1.42-.03h6.67a6.651 6.651 0 01-.02.68h1.7zm4.59-13.75l-1.24 1.32a38.549 38.549 0 014.25 3.61l1.34-1.38a33.779 33.779 0 00-4.35-3.55zm-1.75 11.37l1.14 1.75a18.96 18.96 0 006.51-2.53 17.623 17.623 0 005.97-6.16l-1.04-1.85a16.146 16.146 0 01-5.9 6.41 17.776 17.776 0 01-6.68 2.38z" transform="translate(-1565.22 -2741.69)"/></svg>