<svg xmlns="http://www.w3.org/2000/svg" width="24.5" height="26" viewBox="0 0 24.5 26"><defs><style>.cls-1 { fill: #00a4a8; fill-rule: evenodd; }</style></defs><path id="シェイプ_5" data-name="シェイプ 5" class="cls-1" d="M2039 229.624a4.878 4.878 0 104.74 4.876 4.808 4.808 0 00-4.74-4.876zm0 8.127a3.252 3.252 0 113.16-3.251 3.21 3.21 0 01-3.16 3.251zm12.13-7.641l-2.37-4.223a.773.773 0 00-.99-.342l-2.94 1.278a9.207 9.207 0 00-2.28-1.359l-.4-3.255a.794.794 0 00-.78-.712h-4.74a.794.794 0 00-.78.712l-.4 3.255a9.207 9.207 0 00-2.28 1.359l-2.94-1.278a.773.773 0 00-.99.342l-2.37 4.223a.834.834 0 00.2 1.054l2.55 1.983a9.436 9.436 0 000 2.706l-2.55 1.983a.834.834 0 00-.2 1.054l2.37 4.223a.773.773 0 00.99.342l2.94-1.278a9.207 9.207 0 002.28 1.359l.4 3.255a.793.793 0 00.78.712h4.74a.793.793 0 00.78-.712l.4-3.255a9.207 9.207 0 002.28-1.359l2.94 1.278a.773.773 0 00.99-.342l2.37-4.223a.834.834 0 00-.2-1.054l-2.55-1.983a9.436 9.436 0 000-2.706l2.55-1.983a.834.834 0 00.2-1.054zm-4.08 2.038a.818.818 0 00-.3.8 8.094 8.094 0 010 3.1.817.817 0 00.3.8l2.37 1.847-1.67 2.98-2.75-1.191a.765.765 0 00-.82.136 7.82 7.82 0 01-2.61 1.554.808.808 0 00-.53.668l-.37 3.031h-3.34l-.37-3.031a.808.808 0 00-.53-.668 7.82 7.82 0 01-2.61-1.554.769.769 0 00-.82-.136l-2.74 1.191-1.68-2.98 2.37-1.847a.817.817 0 00.3-.8 8.512 8.512 0 010-3.1.818.818 0 00-.3-.8l-2.37-1.847 1.68-2.98 2.74 1.191a.767.767 0 00.82-.136 7.82 7.82 0 012.61-1.554.808.808 0 00.53-.668l.37-3.031h3.34l.37 3.031a.808.808 0 00.53.668 7.82 7.82 0 012.61 1.554.765.765 0 00.82.136l2.75-1.191 1.67 2.98z" transform="translate(-2026.75 -221.5)"/></svg>