<svg xmlns="http://www.w3.org/2000/svg" width="19.14" height="37.65" viewBox="0 0 19.14 37.65"><defs><style>.cls-1{fill:#00a4a8;fill-rule:evenodd;}</style></defs><g id="レイヤー_2" data-name="レイヤー 2"><g id="レイヤー_1-2" data-name="レイヤー 1"><path id="シェイプ_13" data-name="シェイプ 13" class="cls-1" d="M1.6 0A1.62 1.62 0 000 1.63V36a1.61 1.61 0 001.6 1.62h15.94a1.61 1.61 0 001.6-1.62V1.63A1.62 1.62 0 0017.54 0zm6.66 1.83a8.88 8.88 0 011.93-.15h.11a8.93 8.93 0 011.93.15v.38a7.82 7.82 0 01-1.93.15h-.11a7.79 7.79 0 01-1.93-.15zm-1-.15a.34.34 0 01.33.32.34.34 0 01-.68 0 .34.34 0 01.33-.34zm2.31 35.19a1.32 1.32 0 111.29-1.34 1.31 1.31 0 01-1.29 1.32zm8-5.13A1.62 1.62 0 0116 33.37H3.14a1.62 1.62 0 01-1.6-1.63V5.67a1.61 1.61 0 011.6-1.62H16a1.6 1.6 0 011.6 1.62v26.07z"/></g></g></svg>