<?xml version="1.0" encoding="utf-8"?>
<!-- Generator: Adobe Illustrator 25.2.1, SVG Export Plug-In . SVG Version: 6.00 Build 0)  -->
<svg version="1.1" id="_x32_" xmlns="http://www.w3.org/2000/svg" xmlns:xlink="http://www.w3.org/1999/xlink" x="0px" y="0px"
	 viewBox="0 0 19.1 28.1" style="enable-background:new 0 0 19.1 28.1;" xml:space="preserve">
<style type="text/css">
	.st0{fill:#00A4A8;}
</style>
<g>
	<path class="st0" d="M16.7,0h-3.1c-0.1,0.5-0.5,0.9-1.1,0.9c-0.5,0-1-0.4-1.1-0.9H7.7C7.6,0.5,7.2,0.9,6.6,0.9
		c-0.5,0-1-0.4-1.1-0.9h-3C1.1,0,0,1.1,0,2.5v19.7c0,0.7,0.3,1.3,0.7,1.7l3.5,3.5c0.5,0.5,1.1,0.7,1.7,0.7h10.7
		c1.4,0,2.5-1.1,2.5-2.5V2.5C19.1,1.1,18,0,16.7,0z M10,3.6h2.5v3.8H10V3.6z M6.7,3.6h2.5v3.8H6.7V3.6L6.7,3.6z M3.2,5.3
		c0-0.9,0.8-1.7,1.7-1.7h1v3.8H3.2V5.3L3.2,5.3z M3.2,12.6h2.7v3.8h-1c-0.9,0-1.7-0.8-1.7-1.7V12.6L3.2,12.6z M5.3,22.5
		c-0.7,0-1.5-0.3-1.8-0.6v-0.1L4,21.2h0.1c0.3,0.3,0.7,0.5,1.2,0.5s0.8-0.2,0.8-0.6c0-0.3-0.2-0.5-0.7-0.5H5.1
		c-1-0.1-1.5-0.6-1.5-1.4c0-0.9,0.7-1.4,1.7-1.4c0.6,0,1.2,0.2,1.6,0.5v0.1L6.5,19H6.4c-0.4-0.2-0.7-0.4-1.1-0.4s-0.6,0.2-0.6,0.5
		s0.2,0.4,0.7,0.5h0.3c1,0.1,1.5,0.6,1.5,1.4C7.2,21.9,6.5,22.5,5.3,22.5z M6.7,16.4v-3.8h2.5v3.8H6.7z M9.3,22.4
		C9.3,22.4,9.3,22.5,9.3,22.4l-1,0.1c0,0-0.1,0-0.1-0.1v-4.6c0,0,0-0.1,0.1-0.1h0.9c0,0,0.1,0,0.1,0.1V22.4z M15,22.4
		C15,22.4,15,22.5,15,22.4l-0.9,0.1c0,0-0.1,0-0.1-0.1v-2.7l0,0l-0.9,2c0,0.1-0.1,0.1-0.1,0.1h-0.5c-0.1,0-0.1,0-0.1-0.1l-0.9-2l0,0
		v2.7c0,0,0,0.1-0.1,0.1h-0.8c0,0-0.1,0-0.1-0.1v-4.6c0,0,0-0.1,0.1-0.1h0.8c0.1,0,0.1,0,0.1,0.1l1.2,2.7l0,0l1.2-2.7l0.1-0.1h0.8
		c0,0,0.1,0,0.1,0.1L15,22.4L15,22.4z M10,16.4v-3.8h2.5v3.8H10z M16,14.3v0.4c0,0.9-0.8,1.7-1.7,1.7h-1v-4.6H3.2V8.2H16V14.3z
		 M16,7.4h-2.7V3.6h1c0.9,0,1.7,0.8,1.7,1.7V7.4z"/>
</g>
</svg>
