<svg xmlns="http://www.w3.org/2000/svg" width="54" height="54" viewBox="0 0 54 54"><defs><style>.cls-1,.cls-2{fill:#00a4a8;}.cls-2{fill-rule:evenodd;}</style></defs><g id="レイヤー_2" data-name="レイヤー 2"><g id="レイヤー_1-2" data-name="レイヤー 1"><path class="cls-1" d="M27 54a27 27 0 1127-27 27 27 0 01-27 27zm0-52a25 25 0 1025 25A25 25 0 0027 2z"/><path id="_" data-name=" " class="cls-2" d="M25.52 31.28h3c-.5-4.47 4.84-6.09 4.84-10.47a5.31 5.31 0 00-5.12-5.52 5.4 5.4 0 00-.8 0 7.82 7.82 0 00-6 2.88l2 1.83a4.91 4.91 0 013.64-1.83A2.74 2.74 0 0130 20.69a2.16 2.16 0 010 .36c0 3.27-5.2 5.19-4.48 10.23zm1.56 7.44a2.31 2.31 0 002.31-2.29.45.45 0 000-.11 2.31 2.31 0 10-4.62-.27v.27a2.3 2.3 0 002.17 2.4z"/></g></g></svg>