<svg xmlns="http://www.w3.org/2000/svg" width="27" height="23.031" viewBox="0 0 27 23.031"><defs><style>.cls-1 { fill: #00a4a8; fill-rule: evenodd; }</style></defs><path id="シェイプ_13" data-name="シェイプ 13" class="cls-1" d="M2038.48 225.873l-8.96 13-1.61.5a.893.893 0 00-.49.155c-.73.512-.49 2.12.54 3.593s2.46 2.252 3.18 1.74a.919.919 0 00.33-.441l.7-1.214 15.63-4.1a1.508 1.508 0 00.81-.263c1.52-1.061.59-4.994-2.05-8.786s-6.02-6-7.53-4.944a1.548 1.548 0 00-.55.76zm1.19.693c1.19-.834 3.9 1 6.06 4.085s2.94 6.271 1.76 7.1-3.9-1-6.06-4.086-2.94-6.265-1.76-7.099zm8.51 2.362a.576.576 0 00.8.141l2.05-1.438a.581.581 0 00.14-.8.576.576 0 00-.8-.14l-2.05 1.438a.58.58 0 00-.14.799zm-3.19-3.48a.572.572 0 00.73-.342l.85-2.356a.567.567 0 00-.34-.733.572.572 0 00-.73.342l-.85 2.356a.567.567 0 00.34.733zm5.36 7.682a.574.574 0 00.57.571h2.5a.567.567 0 00.57-.571.568.568 0 00-.57-.572h-2.5a.574.574 0 00-.57.572z" transform="translate(-2027 -222)"/></svg>