<svg xmlns="http://www.w3.org/2000/svg" viewBox="0 0 183.11 39.25"><defs><style>.cls-1{fill:#fff;fill-rule:evenodd;}</style></defs><g id="レイヤー_2" data-name="レイヤー 2"><g id="グループ_6" data-name="グループ 6"><path id="お申し込み" class="cls-1" d="M75.65 27a2.4 2.4 0 01-2.22-1.76 4.54 4.54 0 012.94-3c0 1.54.06 2.91.06 3.65S76.15 27 75.65 27zm2.84-8.57c0-.84 0-1.78.06-2.74a45.39 45.39 0 004.78-.8v-2.35a28.9 28.9 0 01-4.7.91c.06-.84.08-1.6.1-2.18s.1-1.37.14-1.82h-2.62a16.63 16.63 0 01.14 1.87v2.37h-1.64a25.78 25.78 0 01-3.16-.2l.08 2.3a31.08 31.08 0 003.12.12c.46 0 1 0 1.56-.07V20c-2.8 1.23-5.24 3.32-5.24 5.33 0 2.31 3.18 4.18 5.24 4.18 1.4 0 2.34-.72 2.34-3.24 0-.94-.08-2.93-.1-4.9a15.94 15.94 0 014.88-.8c2.16 0 3.82 1 3.82 2.83a3.84 3.84 0 01-3.76 3.44 16 16 0 01-2.86.16l.88 2.4a15.84 15.84 0 003-.33c3.5-.84 5.14-2.8 5.14-5.64 0-3.05-2.66-4.95-6.2-4.95a18.56 18.56 0 00-5 .75v-.79zm6.51-4.5a35.12 35.12 0 015.5 3.51l1.18-1.93a46.63 46.63 0 00-5.68-3.4zm20.3 8.2V19h6.1v3.17zm-8.24 0V19H103v3.17zM103 13.9v3h-6v-3zm8.4 0v3h-6.1v-3zm-6.1-2.14V8.62H103v3.14h-8.21v13.83H97v-1.32h6v6.36h2.3v-6.36h6.1v1.2h2.32v-13.7h-8.42zm14.16-1.82a12.58 12.58 0 01.24 2.74c0 2.3-.24 8.42-.24 11.8 0 3.93 2.44 5.49 6.06 5.49a12.09 12.09 0 0010.12-5.33l-1.7-2.08a9.7 9.7 0 01-8.36 4.89 3.14 3.14 0 01-3.61-2.58 3.38 3.38 0 010-.78c0-3.31.2-8.78.3-11.42 0-.91.13-1.81.26-2.71zm26.68-.24v2.11h4.26c.1.94.2 1.87.34 2.76l-.82-.12A14.71 14.71 0 01143.63 25a16.47 16.47 0 011.76 1.68 16.3 16.3 0 006-8.85 14 14 0 006.1 8.85 10.89 10.89 0 011.76-1.7c-4.86-2.47-6.54-8.16-7-15.24zm-2.6 3.12a18.48 18.48 0 00-4.12-3.67l-1.66 1.34a17.87 17.87 0 014 3.79zm-.66 5.09h-5.26V20h3.08v5.64a35.32 35.32 0 01-3.48 2.47l1.14 2.31c1.26-1 2.42-2 3.54-3a8.23 8.23 0 006.64 2.76c2.74.12 7.56.07 10.28-.05a10.85 10.85 0 01.74-2.28c-3 .2-8.34.27-11 .17a6.56 6.56 0 01-5.68-2.52zm23.82 6.69a1.63 1.63 0 01-1.36.82 1.25 1.25 0 01-1.18-1.32v-.05c0-1.8 1.74-3.62 4.82-4a32.11 32.11 0 01-2.28 4.54zm16.46-2c-.76-.5-1.66-1.13-2.74-1.73a30.94 30.94 0 00.48-4.51l-2.46-.26a15.36 15.36 0 010 2.35 10 10 0 01-.14 1.34 21.44 21.44 0 00-5.93-1.79 57.5 57.5 0 012.52-5.4 4 4 0 01.7-.88l-1.5-1.2a4.45 4.45 0 01-1.36.28c-1.06.1-3.92.22-5.22.22-.5 0-1.26 0-1.88-.07l.1 2.44c.6-.07 1.34-.14 1.84-.16 1.08-.07 3.62-.2 4.56-.22-.66 1.3-1.46 3.14-2.22 4.87-4.72.17-8 2.93-8 6.51a3.27 3.27 0 003 3.51 1.93 1.93 0 00.34 0 3.75 3.75 0 003.32-1.84 47.63 47.63 0 002.88-6 16.9 16.9 0 016.26 2 10.12 10.12 0 01-6.16 6.38l2 1.66a11.57 11.57 0 006.14-6.8 20.54 20.54 0 012.31 1.85z"/><g id="レイヤー_2-2" data-name="レイヤー 2"><g id="レイヤー_1-2" data-name="レイヤー 1-2"><path id="シェイプ_12" data-name="シェイプ 12" class="cls-1" d="M21.48 6.91H1a1 1 0 00-1 .87 1.08 1.08 0 00.07.43l5.38 17.92a2 2 0 001.75 1.3h16.51a1.93 1.93 0 001.75-1.3l5.39-17.91A1 1 0 0030.3 7a.85.85 0 00-.42-.07zM5.15 31.77a1.43 1.43 0 11-.08-2.86h20.86a.7.7 0 00.65-.48L35.13.91a.77.77 0 01.11-.27V.57l.07-.09a.27.27 0 01.07-.08l.07-.07h.19L36 0h7.21a1.45 1.45 0 011.47 1.42.28.28 0 010 .13 1.43 1.43 0 01-1.42 1.3h-5.37a.46.46 0 00-.44.32l-8.6 27.69v.05a.08.08 0 010 .07v.12l-.05.08-.06.09a.77.77 0 01-.18.18l-.07.05H5.15zM12 36.25a3 3 0 11-3-3 3 3 0 013 3zm12.89 0a3 3 0 11-3-3 3 3 0 013 3z"/></g></g></g></g></svg>