<svg xmlns="http://www.w3.org/2000/svg" viewBox="0 0 256.57 37.65"><defs><style>.cls-1{fill:#00a4a8;fill-rule:evenodd;}</style></defs><g id="レイヤー_2" data-name="レイヤー 2"><g id="グループ_5" data-name="グループ 5"><path id="シェイプ_13" data-name="シェイプ 13" class="cls-1" d="M1.6 0A1.62 1.62 0 000 1.63V36a1.61 1.61 0 001.6 1.62h15.94a1.61 1.61 0 001.6-1.62V1.63A1.62 1.62 0 0017.54 0zm6.66 1.83a8.88 8.88 0 011.93-.15h.11a8.93 8.93 0 011.93.15v.38a7.82 7.82 0 01-1.93.15h-.11a7.79 7.79 0 01-1.93-.15zm-1-.15a.34.34 0 01.33.32.34.34 0 01-.68 0 .34.34 0 01.33-.34zm2.31 35.19a1.32 1.32 0 111.29-1.34 1.31 1.31 0 01-1.29 1.32zm8-5.13A1.62 1.62 0 0116 33.37H3.14a1.62 1.62 0 01-1.6-1.63V5.67a1.61 1.61 0 011.6-1.62H16a1.6 1.6 0 011.6 1.62v26.07z"/><path id="シェイプ_8" data-name="シェイプ 8" class="cls-1" d="M8.28 23.23h-4v-1.46h4v-1.68h-4v-1.46h3.4l-3.94-8.37H6.4l1.73 4.28c.46 1.17.9 2.37 1.4 3.59h.11c.51-1.25.95-2.42 1.44-3.59l1.75-4.28h2.57l-4 8.37h3.4v1.46h-4v1.68h4v1.46h-4v4.16H8.29v-4.16z"/><path id="料金シミュレーション_" data-name="料金シミュレーション " class="cls-1" d="M53.11 12.82a18.45 18.45 0 00-3.76-2.93l-.92 1.2a20.47 20.47 0 013.78 3.1zm-1.06 5.74a19 19 0 00-4-2.69l-.84 1.25a19 19 0 014 2.88zm-6.92-8.93A43.94 43.94 0 0143.55 15l1.16.38a51.14 51.14 0 002-5.4zm-5 5.35a22.13 22.13 0 00-1.4-5.25l-1.3.31a23.6 23.6 0 011.3 5.3zm2.62 2.9h3.92V16.2h-3.92V8.29h-1.64v7.91h-3.86v1.68h3.36a24.89 24.89 0 01-3.72 7.47 13.5 13.5 0 01.9 1.73 28.11 28.11 0 003.32-6.84v9.86h1.64v-9.84c.88 1.34 2 3.2 2.44 4.08l1.18-1.4c-.54-.82-2.94-4-3.62-4.73v-.33zm16.4 4.92l-.26-1.63-2.84.51V8.21h-1.68V22l-7.74 1.37.28 1.63 7.46-1.34v6.44h1.68v-6.74zm6.54-7.34a26.36 26.36 0 005.64-5.57 27.6 27.6 0 005.9 5.57zm6.54 6.36h8.24v-1.56h-8.24V17h5.14v-1.44a30.22 30.22 0 004 2.49 7.84 7.84 0 011.16-1.58 28.36 28.36 0 01-10.44-8.3h-1.76a26.81 26.81 0 01-9.94 8.61 5.89 5.89 0 011.08 1.4 32.57 32.57 0 004-2.5v1.37h5v3.22h-8.14v1.56h8.06v5.93h-9.14v1.58h20.38v-1.58h-9.4v-5.94zM64.33 23a16.12 16.12 0 012.18 4.42l1.54-.7a15.55 15.55 0 00-2.28-4.27zm11.22 4.42a38.81 38.81 0 002.94-4.37l-1.7-.65a28.22 28.22 0 01-2.56 4.42zM90.27 9.85l-1.08 1.6c1.4.81 4 2.54 5.16 3.4l1.12-1.64c-1-.76-3.8-2.59-5.2-3.37zM86.65 27l1.12 2a30.36 30.36 0 008-3 28.19 28.19 0 009.22-8.6l-1.16-2a24.44 24.44 0 01-9.1 8.79A25.3 25.3 0 0186.65 27zm0-11.74l-1.06 1.64a53.46 53.46 0 015.24 3.28l1.12-1.68c-1.06-.77-3.86-2.48-5.3-3.24zm24.92-5.13l-.7 1.78a79.29 79.29 0 0112.54 2.85l.78-1.85a86.4 86.4 0 00-12.62-2.79zm-1.08 6.33l-.72 1.8a70.46 70.46 0 0112.06 2.93l.78-1.85a85.1 85.1 0 00-12.12-2.88zm-1.32 7l-.74 1.82a79.32 79.32 0 0114.22 3.63l.82-1.85a84.85 84.85 0 00-14.3-3.61zm32.7 2.76c.34-2.2 1-7 1.22-8.6q.08-.37.18-.75l-1.46-.69a4.6 4.6 0 01-1.22.17h-7.3a17.17 17.17 0 01-1.9-.15v2c.6 0 1.24-.07 1.92-.07h7.64c-.06 1.36-.76 6-1.12 8.06h-8.7c-.74 0-1.42-.05-2-.1v2c.7 0 1.26-.07 2-.07h15v-1.9c-.5 0-1.38.07-1.9.07zm11.32 2.52a3.4 3.4 0 011-.43 28 28 0 0014.06-8.57l-1.1-1.74A25.88 25.88 0 01154 26.21v-13.6a17.62 17.62 0 01.16-2.18h-2.34a19.82 19.82 0 01.18 2.18v13.73a2.37 2.37 0 01-.24 1.17zm18.72-8.47c.76-.08 2-.12 3.34-.12h13.2c1.08 0 2.1.09 2.58.12v-2.39c-.54.05-1.4.12-2.6.12h-13.2c-1.34 0-2.62-.07-3.34-.12v2.36zm27.3-10.39l-1.08 1.6c1.42.81 4 2.54 5.16 3.4l1.12-1.64c-1-.76-3.78-2.59-5.2-3.37zM195.57 27l1.12 2a29.89 29.89 0 008-3 28 28 0 009.22-8.6l-1.16-2a24.44 24.44 0 01-9.1 8.79 25.3 25.3 0 01-8.08 2.81zm0-11.74l-1.06 1.64a49.91 49.91 0 015.24 3.28l1.12-1.68c-1.06-.77-3.86-2.48-5.3-3.24zm36.56 14.38V16.37v-1.22H221.37c-.62 0-2 0-2.46-.1V17c.44 0 1.84-.07 2.46-.07h8.92v4h-8.7c-.82 0-1.68-.07-2.14-.1v1.85h10.84v4.28h-9.7a18.38 18.38 0 01-2-.1v1.84c.38 0 1.22-.07 2-.07h9.7a6.38 6.38 0 010 1h1.9zm7.74-18.93l-1.38 1.46a50.22 50.22 0 016 5l1.51-1.52a52.1 52.1 0 00-6.12-5zm-2.08 16.07l1.28 2a25.85 25.85 0 009.42-3.78 23.91 23.91 0 008.08-8.52l-1.16-2a22.66 22.66 0 01-8 8.83 25 25 0 01-9.62 3.5z"/></g></g></svg>