<svg xmlns="http://www.w3.org/2000/svg" width="124.52" height="16.07" viewBox="0 0 124.52 16.07"><defs><style>.cls-1{fill:#00a4a7}</style></defs><path class="cls-1" d="M36.6 6.45A6.37 6.37 0 1130.23.08a6.36 6.36 0 016.37 6.36M30.24 2.1c-2.21 0-3.77 1.63-3.77 4.34S28 10.8 30.24 10.8 34 9.18 34 6.44 32.51 2.1 30.24 2.1M1.65 16A5.44 5.44 0 010 15.73L.5 14a2.8 2.8 0 001 .11c1.23 0 1.4-1 1.4-2.43V.22h2.37v12c0 2.31-.93 3.85-3.64 3.85M9.12 10.12a1.36 1.36 0 01-1.23-1.47 1.35 1.35 0 011.23-1.22 1.35 1.35 0 011.23 1.46 1.37 1.37 0 01-1.23 1.23M9.12 5.74a1.36 1.36 0 01-1.23-1.47 1.35 1.35 0 011.23-1.22 1.31 1.31 0 011.26 1.35A1.31 1.31 0 019.1 5.74M48.82 12.61V3.89a9.65 9.65 0 01-.74 1.28l-2.55 4h-1.15l-2.76-4.06a7.69 7.69 0 01-.75-1.22v8.72h-2.28V.2h2.14l3.42 5A12.61 12.61 0 0145 6.51a8.9 8.9 0 01.78-1.38L48.91.22h2.15v12.39zM18.71 12.94a6 6 0 01-6.33-5.66v-.6c0-3.56 2.67-6.45 6.9-6.45a7.2 7.2 0 013.23.66L22.43 3a5.41 5.41 0 00-3-.84A4.09 4.09 0 0015 5.9v.61a4.09 4.09 0 003.77 4.4h.37a6.61 6.61 0 003.22-.87l.54 1.62a7.75 7.75 0 01-4.21 1.26M69.2 12.57h2.4V.23h-2.72l-3.5 5.55L62 .23h-2.75v12.34h2.36V3.86l3.77 5.74 3.82-5.79zM88.07 12.57h5.87c2.9 0 4.57-1.2 4.57-3.3 0-1.49-.67-2.37-2.26-3l-.39-.15.36-.2a2.75 2.75 0 001.58-2.58c0-1.95-1.53-3.13-4-3.13h-5.72zm5.87-2.06h-3.56V7.32h3.43c2 0 2.27 1 2.27 1.57s-.25 1.62-2.14 1.62zm-.75-5.12h-2.81V2.3h3c1.29 0 2 .54 2 1.5 0 .71-.36 1.58-2.19 1.58zM100.24 12.57h2.42V.23h-2.42zM104.89 12.57h8.77v-2.16h-6.35V.23h-2.42zM115.23 12.57h9.29v-2.06h-7V7.37h6v-2h-6V2.25h6.87v-2h-9.2zM79.8 0a6.42 6.42 0 00-6.59 6.24v.16a6.32 6.32 0 006.25 6.39h.3a6.44 6.44 0 006.62-6.24V6.4A6.32 6.32 0 0080.14 0zm0 10.66a4.15 4.15 0 01-4.13-4.16v-.1a4.08 4.08 0 013.89-4.27h.2a4.15 4.15 0 014.13 4.18v.09A4.07 4.07 0 0180 10.66z"/></svg>