<svg xmlns="http://www.w3.org/2000/svg" width="95" height="30" viewBox="0 0 285.8 89.1"><path d="M204.8 35.6c0 19.7-15.9 35.6-35.6 35.6-19.7 0-35.6-15.9-35.6-35.6 0-19.7 15.9-35.6 35.6-35.6 19.7 0 35.6 15.9 35.6 35.6m-35.6-24.3c-12.4 0-21.1 9.1-21.1 24.3 0 15.3 8.7 24.4 21.1 24.4 12.3 0 21-9.1 21-24.4 0-14.8-8.3-24.3-21-24.3M9.3 89.1c-3.1 0-6.6-.6-9.3-1.6l2.8-9.9c1.8.7 3.6.6 5.7.6 6.9 0 7.8-5.4 7.8-13.6V.8L29.5.7v66.9c.1 12.9-5.1 21.5-20.2 21.5m41.7-33c-4.1 0-7.4-3.3-7.4-7.5 0-4.3 3.3-7.6 7.4-7.6 4 0 7.3 3.3 7.3 7.6S55 56.1 51 56.1m0-24.5c-4.1 0-7.4-3.3-7.4-7.5 0-4.3 3.3-7.6 7.4-7.6 4 0 7.3 3.3 7.3 7.6S55 31.6 51 31.6M273.1 70V28.7c0-2.5 0-4.8.2-7.5h-.1c-.9 2.2-3 5.5-4.2 7.2l-14.2 22.3h-6.3l-15.6-22.6c-1.4-1.9-2.8-3.9-4.2-6.8h-.2c.2 2.9.2 5.1.2 7.2v41.6h-12.8V.7h11.9L247 28.4c2 2.8 3.3 5.1 4.6 7.4h.2c1.1-2.2 2.3-4.6 4.3-7.7L273.8.6h12V70h-12.7zm-168.4 1.9c-22.6 0-35.5-15.5-35.5-35C69.2 17 84.1.8 107.8.8c7 0 13.6 1.4 18.1 3.7l-.4 11.8c-6.4-3.7-11.3-4.7-17-4.7C91.5 11.6 84 23.5 84 36c0 13.9 8.9 24.7 23.2 24.7 6.7 0 12.4-1.9 18-4.9l3 9.1c-8.1 5-15.7 7-23.5 7" fill="#e83817"/></svg>